<svg width="143" height="196" viewBox="0 0 143 196" fill="none" xmlns="http://www.w3.org/2000/svg">
<g filter="url(#filter0_d_3_50)">
<path d="M57.7428 115.83L74.2276 125.348L40.7522 183.329L31.1441 161.901L57.7428 115.83Z" fill="#CE4444"/>
<path d="M57.7428 115.83L41.258 106.313L7.78265 164.294L31.1441 161.901L57.7428 115.83Z" fill="#983535"/>
<path d="M81.2608 115.83L64.776 125.348L98.2514 183.329L107.859 161.901L81.2608 115.83Z" fill="#983535"/>
<path d="M81.2608 115.83L97.7456 106.313L131.221 164.294L107.859 161.901L81.2608 115.83Z" fill="#CE4444"/>
<circle cx="68.9962" cy="75.9081" r="57.2539" fill="url(#paint0_linear_3_50)" stroke="#765C00"/>
<circle cx="68.9962" cy="75.9081" r="44.3016" fill="#A88300"/>
<mask id="mask0_3_50" style="mask-type:alpha" maskUnits="userSpaceOnUse" x="26" y="36" width="90" height="90">
<circle cx="71.361" cy="80.6376" r="44.4047" fill="#C28B37"/>
</mask>
<g mask="url(#mask0_3_50)">
<circle cx="68.9962" cy="75.9081" r="44.4047" fill="#C09525"/>
</g>
<path d="M69.2357 45.0167L78.8144 64.1741L97.9719 66.5688L84.8171 81.32L88.3931 102.489L69.2357 92.9103L50.0783 102.489L53.6862 81.32L40.4995 66.5688L59.657 64.1741L69.2357 45.0167Z" fill="url(#paint1_linear_3_50)"/>
<path d="M14.1198 41.5033L20.3653 27.758L14.1198 14.0126L27.8651 20.2582L41.6105 14.0126L35.365 27.758L41.6105 41.5033L27.8651 35.2578L14.1198 41.5033Z" fill="white"/>
</g>
<defs>
<filter id="filter0_d_3_50" x="6.99915" y="13.2291" width="135.974" height="181.852" filterUnits="userSpaceOnUse" color-interpolation-filters="sRGB">
<feFlood flood-opacity="0" result="BackgroundImageFix"/>
<feColorMatrix in="SourceAlpha" type="matrix" values="0 0 0 0 0 0 0 0 0 0 0 0 0 0 0 0 0 0 127 0" result="hardAlpha"/>
<feOffset dx="5.48449" dy="5.48449"/>
<feGaussianBlur stdDeviation="3.13399"/>
<feComposite in2="hardAlpha" operator="out"/>
<feColorMatrix type="matrix" values="0 0 0 0 0 0 0 0 0 0 0 0 0 0 0 0 0 0 0.3 0"/>
<feBlend mode="normal" in2="BackgroundImageFix" result="effect1_dropShadow_3_50"/>
<feBlend mode="normal" in="SourceGraphic" in2="effect1_dropShadow_3_50" result="shape"/>
</filter>
<linearGradient id="paint0_linear_3_50" x1="68.9962" y1="19.1542" x2="68.9962" y2="132.662" gradientUnits="userSpaceOnUse">
<stop stop-color="#FFC600"/>
<stop offset="1" stop-color="#FFDE69"/>
</linearGradient>
<linearGradient id="paint1_linear_3_50" x1="69.2357" y1="45.0167" x2="69.2357" y2="102.489" gradientUnits="userSpaceOnUse">
<stop stop-color="#FFFCDD"/>
<stop offset="1" stop-color="#FFE896"/>
</linearGradient>
</defs>
</svg>
